<mxfile host="Electron" modified="2023-05-17T07:09:58.243Z" agent="Mozilla/5.0 (Windows NT 10.0; Win64; x64) AppleWebKit/537.36 (KHTML, like Gecko) draw.io/21.2.8 Chrome/112.0.5615.165 Electron/24.2.0 Safari/537.36" etag="f79gX10IdV-dTLbinl2S" version="21.2.8" type="device">
  <diagram name="Страница 1" id="UXn_hMGYVFuB1G8V9kaG">
    <mxGraphModel dx="2400" dy="2358" grid="1" gridSize="10" guides="1" tooltips="1" connect="1" arrows="1" fold="1" page="1" pageScale="1" pageWidth="827" pageHeight="1169" math="0" shadow="0">
      <root>
        <mxCell id="0" />
        <mxCell id="1" parent="0" />
        <mxCell id="mgb5oVezH8hlTUdS7htL-2" value="&lt;h1&gt;JSON-объект&lt;/h1&gt;&lt;p&gt;Создание JSON-объекта и функций для работы с ним&lt;/p&gt;" style="text;html=1;strokeColor=none;fillColor=none;spacing=5;spacingTop=-20;whiteSpace=wrap;overflow=hidden;rounded=0;" vertex="1" parent="1">
          <mxGeometry x="80" y="100" width="170" height="80" as="geometry" />
        </mxCell>
        <mxCell id="mgb5oVezH8hlTUdS7htL-3" value="&lt;h1&gt;Socket-серверы&lt;/h1&gt;&lt;p&gt;Создание объектов socket-сервера заданий и данных.&amp;nbsp;&lt;/p&gt;" style="text;html=1;strokeColor=none;fillColor=none;spacing=5;spacingTop=-20;whiteSpace=wrap;overflow=hidden;rounded=0;" vertex="1" parent="1">
          <mxGeometry x="320" y="100" width="200" height="80" as="geometry" />
        </mxCell>
        <mxCell id="mgb5oVezH8hlTUdS7htL-4" value="&lt;h1&gt;Обработчик заданий&lt;/h1&gt;&lt;p&gt;Создание обработчика заданий и объекта PXI-ВАЦ.&amp;nbsp;&lt;/p&gt;" style="text;html=1;strokeColor=none;fillColor=none;spacing=5;spacingTop=-20;whiteSpace=wrap;overflow=hidden;rounded=0;" vertex="1" parent="1">
          <mxGeometry x="560" y="70" width="170" height="110" as="geometry" />
        </mxCell>
        <mxCell id="mgb5oVezH8hlTUdS7htL-5" value="&lt;h1&gt;Ядро программы&lt;/h1&gt;&lt;p&gt;Написание ядра программы и организация логики работы в соответствии с блок-схемой&lt;/p&gt;" style="text;html=1;strokeColor=none;fillColor=none;spacing=5;spacingTop=-20;whiteSpace=wrap;overflow=hidden;rounded=0;" vertex="1" parent="1">
          <mxGeometry x="540" y="280" width="220" height="100" as="geometry" />
        </mxCell>
        <mxCell id="mgb5oVezH8hlTUdS7htL-7" value="&lt;h1&gt;DLL-файл&lt;/h1&gt;&lt;p&gt;Добавление возможности сборки программы в dll-файл для дальнейшего использования в проектах, написанных на языке C#&lt;/p&gt;" style="text;html=1;strokeColor=none;fillColor=none;spacing=5;spacingTop=-20;whiteSpace=wrap;overflow=hidden;rounded=0;" vertex="1" parent="1">
          <mxGeometry x="300" y="270" width="210" height="110" as="geometry" />
        </mxCell>
        <mxCell id="mgb5oVezH8hlTUdS7htL-8" value="&lt;h1&gt;Документация&lt;/h1&gt;&lt;p&gt;Написание документации для правильного использования программы или библиотеки сторонними разработчиками&lt;/p&gt;" style="text;html=1;strokeColor=none;fillColor=none;spacing=5;spacingTop=-20;whiteSpace=wrap;overflow=hidden;rounded=0;" vertex="1" parent="1">
          <mxGeometry x="70" y="270" width="190" height="110" as="geometry" />
        </mxCell>
        <mxCell id="mgb5oVezH8hlTUdS7htL-9" value="&lt;h1&gt;Примеры кода&lt;/h1&gt;&lt;p&gt;Написание примеров для правильного добавления dll-файла в проект, написанный на языке C#&lt;/p&gt;" style="text;html=1;strokeColor=none;fillColor=none;spacing=5;spacingTop=-20;whiteSpace=wrap;overflow=hidden;rounded=0;" vertex="1" parent="1">
          <mxGeometry x="-180" y="280" width="220" height="100" as="geometry" />
        </mxCell>
        <mxCell id="mgb5oVezH8hlTUdS7htL-11" value="" style="endArrow=oval;html=1;rounded=0;startArrow=oval;startFill=1;endFill=1;strokeWidth=2;" edge="1" parent="1">
          <mxGeometry width="50" height="50" relative="1" as="geometry">
            <mxPoint x="-40" y="240" as="sourcePoint" />
            <mxPoint x="200" y="240" as="targetPoint" />
          </mxGeometry>
        </mxCell>
        <mxCell id="mgb5oVezH8hlTUdS7htL-12" value="19 мая" style="text;html=1;align=center;verticalAlign=middle;resizable=0;points=[];autosize=1;strokeColor=none;fillColor=none;" vertex="1" parent="1">
          <mxGeometry x="170" y="240" width="60" height="30" as="geometry" />
        </mxCell>
        <mxCell id="mgb5oVezH8hlTUdS7htL-13" value="" style="endArrow=none;html=1;rounded=0;dashed=1;dashPattern=8 8;" edge="1" parent="1">
          <mxGeometry width="50" height="50" relative="1" as="geometry">
            <mxPoint x="200" y="240" as="sourcePoint" />
            <mxPoint x="80" y="180" as="targetPoint" />
            <Array as="points">
              <mxPoint x="240" y="180" />
            </Array>
          </mxGeometry>
        </mxCell>
        <mxCell id="mgb5oVezH8hlTUdS7htL-14" value="23 мая" style="text;html=1;align=center;verticalAlign=middle;resizable=0;points=[];autosize=1;strokeColor=none;fillColor=none;" vertex="1" parent="1">
          <mxGeometry x="410" y="240" width="60" height="30" as="geometry" />
        </mxCell>
        <mxCell id="mgb5oVezH8hlTUdS7htL-15" value="" style="endArrow=oval;html=1;rounded=0;startArrow=oval;startFill=1;endFill=1;strokeWidth=2;" edge="1" parent="1">
          <mxGeometry width="50" height="50" relative="1" as="geometry">
            <mxPoint x="200" y="240" as="sourcePoint" />
            <mxPoint x="440" y="240" as="targetPoint" />
          </mxGeometry>
        </mxCell>
        <mxCell id="mgb5oVezH8hlTUdS7htL-16" value="26 мая" style="text;html=1;align=center;verticalAlign=middle;resizable=0;points=[];autosize=1;strokeColor=none;fillColor=none;" vertex="1" parent="1">
          <mxGeometry x="650" y="240" width="60" height="30" as="geometry" />
        </mxCell>
        <mxCell id="mgb5oVezH8hlTUdS7htL-17" value="" style="endArrow=none;html=1;rounded=0;dashed=1;dashPattern=8 8;" edge="1" parent="1">
          <mxGeometry width="50" height="50" relative="1" as="geometry">
            <mxPoint x="440" y="240" as="sourcePoint" />
            <mxPoint x="320" y="180" as="targetPoint" />
            <Array as="points">
              <mxPoint x="480" y="180" />
            </Array>
          </mxGeometry>
        </mxCell>
        <mxCell id="mgb5oVezH8hlTUdS7htL-18" value="" style="endArrow=oval;html=1;rounded=0;startArrow=oval;startFill=1;endFill=1;strokeWidth=2;" edge="1" parent="1">
          <mxGeometry width="50" height="50" relative="1" as="geometry">
            <mxPoint x="440" y="240" as="sourcePoint" />
            <mxPoint x="680" y="240" as="targetPoint" />
          </mxGeometry>
        </mxCell>
        <mxCell id="mgb5oVezH8hlTUdS7htL-19" value="" style="endArrow=none;html=1;rounded=0;dashed=1;dashPattern=8 8;" edge="1" parent="1">
          <mxGeometry width="50" height="50" relative="1" as="geometry">
            <mxPoint x="680" y="240" as="sourcePoint" />
            <mxPoint x="560" y="180" as="targetPoint" />
            <Array as="points">
              <mxPoint x="720" y="180" />
            </Array>
          </mxGeometry>
        </mxCell>
        <mxCell id="mgb5oVezH8hlTUdS7htL-20" value="31 мая" style="text;html=1;align=center;verticalAlign=middle;resizable=0;points=[];autosize=1;strokeColor=none;fillColor=none;" vertex="1" parent="1">
          <mxGeometry x="650" y="440" width="60" height="30" as="geometry" />
        </mxCell>
        <mxCell id="mgb5oVezH8hlTUdS7htL-21" value="" style="curved=1;endArrow=oval;html=1;rounded=0;endFill=1;startArrow=oval;startFill=1;strokeWidth=2;" edge="1" parent="1">
          <mxGeometry width="50" height="50" relative="1" as="geometry">
            <mxPoint x="680" y="440" as="sourcePoint" />
            <mxPoint x="680" y="240" as="targetPoint" />
            <Array as="points">
              <mxPoint x="800" y="440" />
              <mxPoint x="800" y="240" />
            </Array>
          </mxGeometry>
        </mxCell>
        <mxCell id="mgb5oVezH8hlTUdS7htL-22" value="" style="endArrow=oval;html=1;rounded=0;startArrow=oval;startFill=1;endFill=1;strokeWidth=2;" edge="1" parent="1">
          <mxGeometry width="50" height="50" relative="1" as="geometry">
            <mxPoint x="440" y="440" as="sourcePoint" />
            <mxPoint x="680" y="440" as="targetPoint" />
          </mxGeometry>
        </mxCell>
        <mxCell id="mgb5oVezH8hlTUdS7htL-23" value="" style="endArrow=none;html=1;rounded=0;dashed=1;dashPattern=8 8;" edge="1" parent="1">
          <mxGeometry width="50" height="50" relative="1" as="geometry">
            <mxPoint x="680" y="440" as="sourcePoint" />
            <mxPoint x="560" y="380" as="targetPoint" />
            <Array as="points">
              <mxPoint x="720" y="380" />
            </Array>
          </mxGeometry>
        </mxCell>
        <mxCell id="mgb5oVezH8hlTUdS7htL-24" value="" style="endArrow=oval;html=1;rounded=0;startArrow=oval;startFill=1;endFill=1;strokeWidth=2;" edge="1" parent="1">
          <mxGeometry width="50" height="50" relative="1" as="geometry">
            <mxPoint x="200" y="440" as="sourcePoint" />
            <mxPoint x="440" y="440" as="targetPoint" />
          </mxGeometry>
        </mxCell>
        <mxCell id="mgb5oVezH8hlTUdS7htL-25" value="" style="endArrow=none;html=1;rounded=0;dashed=1;dashPattern=8 8;" edge="1" parent="1">
          <mxGeometry width="50" height="50" relative="1" as="geometry">
            <mxPoint x="440" y="440" as="sourcePoint" />
            <mxPoint x="320" y="380" as="targetPoint" />
            <Array as="points">
              <mxPoint x="480" y="380" />
            </Array>
          </mxGeometry>
        </mxCell>
        <mxCell id="mgb5oVezH8hlTUdS7htL-26" value="" style="endArrow=none;html=1;rounded=0;dashed=1;dashPattern=8 8;" edge="1" parent="1">
          <mxGeometry width="50" height="50" relative="1" as="geometry">
            <mxPoint x="200" y="440" as="sourcePoint" />
            <mxPoint x="80" y="380" as="targetPoint" />
            <Array as="points">
              <mxPoint x="240" y="380" />
            </Array>
          </mxGeometry>
        </mxCell>
        <mxCell id="mgb5oVezH8hlTUdS7htL-27" value="" style="endArrow=oval;html=1;rounded=0;startArrow=oval;startFill=1;endFill=1;strokeWidth=2;" edge="1" parent="1">
          <mxGeometry width="50" height="50" relative="1" as="geometry">
            <mxPoint x="-40" y="440" as="sourcePoint" />
            <mxPoint x="200" y="440" as="targetPoint" />
          </mxGeometry>
        </mxCell>
        <mxCell id="mgb5oVezH8hlTUdS7htL-28" value="" style="curved=1;endArrow=oval;html=1;rounded=0;endFill=1;startArrow=oval;startFill=1;strokeWidth=2;" edge="1" parent="1">
          <mxGeometry width="50" height="50" relative="1" as="geometry">
            <mxPoint x="-40" y="640" as="sourcePoint" />
            <mxPoint x="-40" y="440" as="targetPoint" />
            <Array as="points">
              <mxPoint x="-160" y="640" />
              <mxPoint x="-160" y="440" />
            </Array>
          </mxGeometry>
        </mxCell>
        <mxCell id="mgb5oVezH8hlTUdS7htL-29" value="" style="endArrow=none;html=1;rounded=0;dashed=1;dashPattern=8 8;" edge="1" parent="1">
          <mxGeometry width="50" height="50" relative="1" as="geometry">
            <mxPoint x="-40" y="440" as="sourcePoint" />
            <mxPoint x="-160" y="380" as="targetPoint" />
            <Array as="points">
              <mxPoint y="380" />
            </Array>
          </mxGeometry>
        </mxCell>
        <mxCell id="mgb5oVezH8hlTUdS7htL-32" value="" style="endArrow=none;html=1;rounded=0;dashed=1;dashPattern=8 8;" edge="1" parent="1">
          <mxGeometry width="50" height="50" relative="1" as="geometry">
            <mxPoint x="-40" y="640" as="sourcePoint" />
            <mxPoint x="140" y="580" as="targetPoint" />
            <Array as="points">
              <mxPoint y="580" />
            </Array>
          </mxGeometry>
        </mxCell>
        <mxCell id="mgb5oVezH8hlTUdS7htL-33" value="&lt;h1&gt;Тестирование&lt;/h1&gt;&lt;p&gt;Проверка работоспособности программы в связке с AntestL. Правка ошибок&lt;/p&gt;" style="text;html=1;strokeColor=none;fillColor=none;spacing=5;spacingTop=-20;whiteSpace=wrap;overflow=hidden;rounded=0;" vertex="1" parent="1">
          <mxGeometry x="-20" y="480" width="220" height="100" as="geometry" />
        </mxCell>
        <mxCell id="mgb5oVezH8hlTUdS7htL-34" value="8 июня" style="text;html=1;align=center;verticalAlign=middle;resizable=0;points=[];autosize=1;strokeColor=none;fillColor=none;" vertex="1" parent="1">
          <mxGeometry x="410" y="440" width="60" height="30" as="geometry" />
        </mxCell>
        <mxCell id="mgb5oVezH8hlTUdS7htL-35" value="" style="endArrow=classic;html=1;rounded=0;startArrow=oval;startFill=1;endFill=1;strokeWidth=2;dashed=1;" edge="1" parent="1">
          <mxGeometry width="50" height="50" relative="1" as="geometry">
            <mxPoint x="-40" y="640" as="sourcePoint" />
            <mxPoint x="680" y="640" as="targetPoint" />
          </mxGeometry>
        </mxCell>
        <mxCell id="mgb5oVezH8hlTUdS7htL-36" value="12 июня" style="text;html=1;align=center;verticalAlign=middle;resizable=0;points=[];autosize=1;strokeColor=none;fillColor=none;" vertex="1" parent="1">
          <mxGeometry x="160" y="440" width="70" height="30" as="geometry" />
        </mxCell>
        <mxCell id="mgb5oVezH8hlTUdS7htL-37" value="15 июня" style="text;html=1;align=center;verticalAlign=middle;resizable=0;points=[];autosize=1;strokeColor=none;fillColor=none;" vertex="1" parent="1">
          <mxGeometry x="-75" y="440" width="70" height="30" as="geometry" />
        </mxCell>
        <mxCell id="mgb5oVezH8hlTUdS7htL-38" value="17 июня" style="text;html=1;align=center;verticalAlign=middle;resizable=0;points=[];autosize=1;strokeColor=none;fillColor=none;" vertex="1" parent="1">
          <mxGeometry x="-75" y="640" width="70" height="30" as="geometry" />
        </mxCell>
        <mxCell id="mgb5oVezH8hlTUdS7htL-39" value="31 июня" style="text;html=1;align=center;verticalAlign=middle;resizable=0;points=[];autosize=1;strokeColor=none;fillColor=none;" vertex="1" parent="1">
          <mxGeometry x="640" y="640" width="70" height="30" as="geometry" />
        </mxCell>
        <mxCell id="mgb5oVezH8hlTUdS7htL-40" value="17 мая" style="text;html=1;align=center;verticalAlign=middle;resizable=0;points=[];autosize=1;strokeColor=none;fillColor=none;" vertex="1" parent="1">
          <mxGeometry x="-65" y="240" width="60" height="30" as="geometry" />
        </mxCell>
        <mxCell id="mgb5oVezH8hlTUdS7htL-42" value="&lt;b style=&quot;&quot;&gt;&lt;font style=&quot;font-size: 36px;&quot;&gt;AntestL Backend roadmap&lt;/font&gt;&lt;/b&gt;" style="text;html=1;strokeColor=none;fillColor=none;align=center;verticalAlign=middle;whiteSpace=wrap;rounded=0;" vertex="1" parent="1">
          <mxGeometry x="40" y="-30" width="560" height="30" as="geometry" />
        </mxCell>
        <mxCell id="mgb5oVezH8hlTUdS7htL-48" value="" style="endArrow=none;html=1;rounded=0;strokeWidth=2;" edge="1" parent="1">
          <mxGeometry width="50" height="50" relative="1" as="geometry">
            <mxPoint x="620" y="530" as="sourcePoint" />
            <mxPoint x="660" y="530" as="targetPoint" />
          </mxGeometry>
        </mxCell>
        <mxCell id="mgb5oVezH8hlTUdS7htL-49" value="" style="endArrow=none;html=1;rounded=0;strokeWidth=2;startArrow=oval;startFill=1;" edge="1" parent="1">
          <mxGeometry width="50" height="50" relative="1" as="geometry">
            <mxPoint x="640" y="530" as="sourcePoint" />
            <mxPoint x="660" y="530" as="targetPoint" />
          </mxGeometry>
        </mxCell>
        <mxCell id="mgb5oVezH8hlTUdS7htL-50" value="- старт этапа" style="text;html=1;strokeColor=none;fillColor=none;align=center;verticalAlign=middle;whiteSpace=wrap;rounded=0;" vertex="1" parent="1">
          <mxGeometry x="660" y="520" width="80" height="20" as="geometry" />
        </mxCell>
        <mxCell id="mgb5oVezH8hlTUdS7htL-51" value="" style="endArrow=none;dashed=1;html=1;rounded=0;strokeWidth=2;" edge="1" parent="1">
          <mxGeometry width="50" height="50" relative="1" as="geometry">
            <mxPoint x="620" y="550" as="sourcePoint" />
            <mxPoint x="660" y="550" as="targetPoint" />
          </mxGeometry>
        </mxCell>
        <mxCell id="mgb5oVezH8hlTUdS7htL-52" value="- запас времени" style="text;html=1;strokeColor=none;fillColor=none;align=center;verticalAlign=middle;whiteSpace=wrap;rounded=0;" vertex="1" parent="1">
          <mxGeometry x="660" y="540" width="100" height="20" as="geometry" />
        </mxCell>
      </root>
    </mxGraphModel>
  </diagram>
</mxfile>
